# xmcd
#
# Track frame offsets:
#	150
#	22898
#	37773
#	64931
#	91832
#	121048
#	144172
#	169016
#	184603
#	198665
#	212323
#
# Disc length: 3210 seconds
#
# Revision: 0
# Processed by: cddbd v1.5.1PL0 Copyright (c) Steve Scherf et al.
# Submitted via: dBpowerAMP V4.0
#
DISCID=810c880b
DTITLE=Sal Ban - Impulse
DYEAR=2004
DGENRE=Dance
TTITLE0=Maschinen Kontrolle
TTITLE1=Seemann Ahoi
TTITLE2=Dancefloor Kontrolle
TTITLE3=Oberdeck
TTITLE4=Electronic Evolution
TTITLE5=Tauchgang
TTITLE6=Zerstörer Vorraus
TTITLE7=Maschinen Raum
TTITLE8=Flagge in Sicht
TTITLE9=Landgang
TTITLE10=Dreams Can be Reality
EXTD=All rights of the producer and of the owner of the recorded work reserved. All tracks produced, composed, arranged and written by SAL BAN. www.oszillation.com
EXTT0=
EXTT1=
EXTT2=
EXTT3=
EXTT4=
EXTT5=
EXTT6=
EXTT7=
EXTT8=
EXTT9=
EXTT10=
PLAYORDER=
